# xmcd
#
# Track frame offsets:
#	150
#	15715
#	33582
#	49482
#	67397
#	84155
#	101462
#	118797
#
# Disc length: 1827 seconds
#
# Revision: 1
# Processed by: cddbd v1.4PL0 Copyright (c) Steve Scherf et al.
# Submitted via: audiograbber 1.82.00
#
DISCID=6b072108
DTITLE=Milos Bojanic - Momacko vece
DYEAR=1988
DGENRE=Folk
TTITLE0=Sanjam te
TTITLE1=Volim te takvu kakva jesi
TTITLE2=Momacko vece
TTITLE3=Ciganka mi sudbinu prorekla
TTITLE4=Zao mi je
TTITLE5=Ne kuni majko kafanu
TTITLE6=Ja cu u pakao a one ...
TTITLE7=Kad Bosanac u Bosnu se vraca
EXTD=
EXTT0=
EXTT1=
EXTT2=
EXTT3=
EXTT4=
EXTT5=
EXTT6=
EXTT7=
PLAYORDER=
